<?xml version="1.0" encoding="utf-8"?>

<!DOCTYPE svg PUBLIC "-//W3C//DTD SVG 1.1//EN" "http://www.w3.org/Graphics/SVG/1.1/DTD/svg11.dtd">
<!-- Uploaded to: SVG Repo, www.svgrepo.com, Generator: SVG Repo Mixer Tools -->
<svg version="1.1" id="Layer_1" xmlns:sketch="http://www.bohemiancoding.com/sketch/ns"
	 xmlns="http://www.w3.org/2000/svg" xmlns:xlink="http://www.w3.org/1999/xlink"  width="800px" height="800px"
	 viewBox="0 0 54 64" enable-background="new 0 0 54 64" xml:space="preserve">
<title>Contact-book-1</title>
<desc>Created with Sketch.</desc>
<g id="Page-1" sketch:type="MSPage">
	<g id="Contact-book-1" transform="translate(1.000000, 1.000000)" sketch:type="MSLayerGroup">
		<path id="Shape_1_" sketch:type="MSShapeGroup" fill="none" stroke="#6B6C6E" stroke-width="2" stroke-linejoin="round" d="M47,7
			h3c1.1,0,2,0.9,2,2v8c0,1.1-0.9,2-2,2h-3"/>
		<path id="Shape_2_" sketch:type="MSShapeGroup" fill="none" stroke="#6B6C6E" stroke-width="2" stroke-linejoin="round" d="M47,24
			h3c1.1,0,2,0.9,2,2v8c0,1.1-0.9,2-2,2h-3"/>
		<path id="Shape_3_" sketch:type="MSShapeGroup" fill="none" stroke="#6B6C6E" stroke-width="2" stroke-linejoin="round" d="M47,41
			h3c1.1,0,2,0.9,2,2v8c0,1.1-0.9,2-2,2h-3"/>
		<path id="Shape" sketch:type="MSShapeGroup" fill="none" stroke="#6B6C6E" stroke-width="2" stroke-linejoin="round" d="M0,2
			c0-1.1,0.9-2,2-2h44c1.1,0,2,0.9,2,2v58c0,1.1-0.9,2-2,2H2c-1.1,0-2-0.9-2-2V2L0,2z"/>
		<path id="Shape_4_" sketch:type="MSShapeGroup" fill="none" stroke="#6B6C6E" stroke-width="2" stroke-linejoin="round" d="M6,3
			v56"/>
		<path id="Shape_5_" sketch:type="MSShapeGroup" fill="none" stroke="#6B6C6E" stroke-width="2" stroke-linejoin="round" d="M30,35
			c0,1-2,3-4,3c-3,0-4-2.4-4-4c0-3,2.1-5,5.6-5H30v5c0,2.354,0.5,3.5,1.6,3.4c1.7,0,3.6-2.4,3.4-6.2c-0.3-4.8-3.4-7.6-8.6-7.3
			c-5.4,0.3-9.8,4.4-9.4,11c0.3,5.5,4.1,8.3,9,8c1.9-0.1,3.6-0.8,5-1.6"/>
	</g>
</g>
</svg>